<svg width="8" height="8" viewBox="0 0 8 8" fill="none" xmlns="http://www.w3.org/2000/svg">
<path d="M4.01927 5.39016L2.45682 6.95262C2.26764 7.13519 2.015 7.23722 1.7521 7.23722C1.4892 7.23722 1.23655 7.13519 1.04738 6.95262C0.954603 6.86021 0.880985 6.75038 0.830753 6.62945C0.780521 6.50852 0.754663 6.37885 0.754663 6.2479C0.754663 6.11695 0.780521 5.98729 0.830753 5.86636C0.880985 5.74542 0.954603 5.6356 1.04738 5.54319L2.60984 3.98073C2.68567 3.9049 2.72827 3.80205 2.72827 3.69481C2.72827 3.58758 2.68567 3.48473 2.60984 3.4089C2.53401 3.33307 2.43116 3.29047 2.32393 3.29047C2.21669 3.29047 2.11384 3.33307 2.03801 3.4089L0.475555 4.97538C0.160791 5.318 -0.0094429 5.76896 0.000404603 6.23411C0.0102521 6.69926 0.199419 7.14262 0.528402 7.4716C0.857384 7.80058 1.30074 7.98975 1.76589 7.9996C2.23104 8.00944 2.682 7.83921 3.02462 7.52445L4.5911 5.96199C4.66693 5.88616 4.70953 5.78331 4.70953 5.67607C4.70953 5.56884 4.66693 5.46599 4.5911 5.39016C4.51527 5.31433 4.41242 5.27173 4.30519 5.27173C4.19795 5.27173 4.0951 5.31433 4.01927 5.39016ZM7.4744 0.525603C7.13564 0.188952 6.67745 0 6.19987 0C5.72228 0 5.26409 0.188952 4.92534 0.525603L3.35885 2.08806C3.32131 2.12561 3.29152 2.17018 3.2712 2.21924C3.25088 2.2683 3.24042 2.32087 3.24042 2.37397C3.24042 2.42707 3.25088 2.47965 3.2712 2.52871C3.29152 2.57777 3.32131 2.62234 3.35885 2.65989C3.3964 2.69743 3.44097 2.72722 3.49003 2.74754C3.53909 2.76786 3.59167 2.77832 3.64477 2.77832C3.69787 2.77832 3.75044 2.76786 3.7995 2.74754C3.84856 2.72722 3.89313 2.69743 3.93068 2.65989L5.49314 1.09743C5.68231 0.914858 5.93495 0.812828 6.19785 0.812828C6.46076 0.812828 6.7134 0.914858 6.90257 1.09743C6.99535 1.18984 7.06897 1.29967 7.1192 1.4206C7.16943 1.54153 7.19529 1.6712 7.19529 1.80215C7.19529 1.9331 7.16943 2.06276 7.1192 2.18369C7.06897 2.30463 6.99535 2.41445 6.90257 2.50686L5.34011 4.06932C5.30237 4.10676 5.27241 4.1513 5.25197 4.20037C5.23152 4.24944 5.221 4.30207 5.221 4.35523C5.221 4.40839 5.23152 4.46103 5.25197 4.5101C5.27241 4.55917 5.30237 4.60371 5.34011 4.64115C5.37755 4.67889 5.42209 4.70885 5.47116 4.72929C5.52023 4.74974 5.57287 4.76026 5.62603 4.76026C5.67919 4.76026 5.73182 4.74974 5.78089 4.72929C5.82997 4.70885 5.8745 4.67889 5.91194 4.64115L7.4744 3.07466C7.81105 2.73591 8 2.27772 8 1.80013C8 1.32255 7.81105 0.864358 7.4744 0.525603ZM2.69843 5.30157C2.73606 5.33889 2.78069 5.36842 2.82975 5.38846C2.87881 5.4085 2.93135 5.41866 2.98435 5.41835C3.03734 5.41866 3.08988 5.4085 3.13894 5.38846C3.18801 5.36842 3.23263 5.33889 3.27026 5.30157L5.25152 3.32031C5.32735 3.24448 5.36995 3.14163 5.36995 3.03439C5.36995 2.92716 5.32735 2.82431 5.25152 2.74848C5.17569 2.67265 5.07284 2.63005 4.96561 2.63005C4.85837 2.63005 4.75552 2.67265 4.67969 2.74848L2.69843 4.72974C2.66069 4.76718 2.63073 4.81172 2.61029 4.86079C2.58984 4.90986 2.57932 4.96249 2.57932 5.01565C2.57932 5.06881 2.58984 5.12145 2.61029 5.17052C2.63073 5.21959 2.66069 5.26413 2.69843 5.30157Z" fill="#768396"/>
</svg>
