<svg width="8" height="14" viewBox="0 0 8 14" fill="none" xmlns="http://www.w3.org/2000/svg">
<path d="M0.321835 8.0542L5.98183 13.7042C6.0748 13.7979 6.1854 13.8723 6.30726 13.9231C6.42912 13.9739 6.55982 14 6.69183 14C6.82385 14 6.95455 13.9739 7.07641 13.9231C7.19827 13.8723 7.30887 13.7979 7.40183 13.7042C7.58809 13.5168 7.69263 13.2634 7.69263 12.9992C7.69263 12.735 7.58809 12.4816 7.40183 12.2942L2.45184 7.2942L7.40184 2.3442C7.58809 2.15684 7.69263 1.90339 7.69263 1.6392C7.69263 1.37502 7.58809 1.12156 7.40184 0.934202C7.30922 0.839714 7.19878 0.764543 7.0769 0.713047C6.95503 0.66155 6.82414 0.634752 6.69184 0.634203C6.55953 0.634752 6.42865 0.66155 6.30677 0.713047C6.1849 0.764543 6.07445 0.839714 5.98184 0.934202L0.321835 6.5842C0.22033 6.67784 0.139322 6.79149 0.0839144 6.91799C0.0285069 7.04449 -9.76323e-05 7.1811 -9.76444e-05 7.3192C-9.76565e-05 7.4573 0.0285068 7.59391 0.0839144 7.72041C0.139322 7.84691 0.22033 7.96056 0.321835 8.0542Z" fill="#5051F9"/>
</svg>
