<svg width="10" height="11" viewBox="0 0 10 11" fill="none" xmlns="http://www.w3.org/2000/svg">
<path d="M8.33333 0H1.66667C1.22464 0 0.800716 0.173839 0.488155 0.483273C0.175595 0.792708 0 1.21239 0 1.65V7.69999C0 8.1376 0.175595 8.55728 0.488155 8.86672C0.800716 9.17615 1.22464 9.34999 1.66667 9.34999H3.10556L4.60556 10.8405C4.65747 10.8915 4.71903 10.9318 4.78672 10.9592C4.85441 10.9865 4.92689 11.0004 5 11C5.13241 11 5.26048 10.9532 5.36111 10.868L7.15 9.34999H8.33333C8.77536 9.34999 9.19928 9.17615 9.51185 8.86672C9.82441 8.55728 10 8.1376 10 7.69999V1.65C10 1.21239 9.82441 0.792708 9.51185 0.483273C9.19928 0.173839 8.77536 0 8.33333 0ZM8.88889 7.69999C8.88889 7.84586 8.83036 7.98576 8.72617 8.0889C8.62198 8.19205 8.48068 8.24999 8.33333 8.24999H6.94444C6.81203 8.24998 6.68397 8.29679 6.58333 8.38199L5.02778 9.70199L3.72778 8.40949C3.67587 8.35852 3.6143 8.31819 3.54661 8.29082C3.47893 8.26345 3.40645 8.24957 3.33333 8.24999H1.66667C1.51932 8.24999 1.37802 8.19205 1.27383 8.0889C1.16964 7.98576 1.11111 7.84586 1.11111 7.69999V1.65C1.11111 1.50413 1.16964 1.36424 1.27383 1.26109C1.37802 1.15795 1.51932 1.1 1.66667 1.1H8.33333C8.48068 1.1 8.62198 1.15795 8.72617 1.26109C8.83036 1.36424 8.88889 1.50413 8.88889 1.65V7.69999Z" fill="#768396"/>
</svg>
