<svg width="11" height="15" viewBox="0 0 11 15" fill="none" xmlns="http://www.w3.org/2000/svg">
<path d="M5.45454 9.54545C6.17786 9.54545 6.87155 9.25812 7.38302 8.74666C7.89448 8.23519 8.18182 7.5415 8.18182 6.81818V2.72727C8.18182 2.00396 7.89448 1.31026 7.38302 0.7988C6.87155 0.287337 6.17786 0 5.45454 0C4.73123 0 4.03753 0.287337 3.52607 0.7988C3.01461 1.31026 2.72727 2.00396 2.72727 2.72727V6.81818C2.72727 7.5415 3.01461 8.23519 3.52607 8.74666C4.03753 9.25812 4.73123 9.54545 5.45454 9.54545ZM4.09091 2.72727C4.09091 2.36561 4.23458 2.01877 4.49031 1.76304C4.74604 1.5073 5.09289 1.36364 5.45454 1.36364C5.8162 1.36364 6.16305 1.5073 6.41878 1.76304C6.67451 2.01877 6.81818 2.36561 6.81818 2.72727V6.81818C6.81818 7.17984 6.67451 7.52669 6.41878 7.78242C6.16305 8.03815 5.8162 8.18182 5.45454 8.18182C5.09289 8.18182 4.74604 8.03815 4.49031 7.78242C4.23458 7.52669 4.09091 7.17984 4.09091 6.81818V2.72727ZM10.9091 6.81818C10.9091 6.63735 10.8373 6.46393 10.7094 6.33606C10.5815 6.2082 10.4081 6.13636 10.2273 6.13636C10.0464 6.13636 9.87302 6.2082 9.74515 6.33606C9.61729 6.46393 9.54545 6.63735 9.54545 6.81818C9.54545 7.90316 9.11445 8.9437 8.34725 9.71089C7.58006 10.4781 6.53952 10.9091 5.45454 10.9091C4.36957 10.9091 3.32903 10.4781 2.56184 9.71089C1.79464 8.9437 1.36364 7.90316 1.36364 6.81818C1.36364 6.63735 1.2918 6.46393 1.16394 6.33606C1.03607 6.2082 0.862647 6.13636 0.681818 6.13636C0.500989 6.13636 0.327566 6.2082 0.1997 6.33606C0.0718343 6.46393 0 6.63735 0 6.81818C0.00120395 8.14588 0.486628 9.42756 1.36527 10.4229C2.24391 11.4183 3.45544 12.059 4.77273 12.225V13.6364H3.40909C3.22826 13.6364 3.05484 13.7082 2.92697 13.8361C2.79911 13.9639 2.72727 14.1374 2.72727 14.3182C2.72727 14.499 2.79911 14.6724 2.92697 14.8003C3.05484 14.9282 3.22826 15 3.40909 15H7.5C7.68083 15 7.85425 14.9282 7.98212 14.8003C8.10998 14.6724 8.18182 14.499 8.18182 14.3182C8.18182 14.1374 8.10998 13.9639 7.98212 13.8361C7.85425 13.7082 7.68083 13.6364 7.5 13.6364H6.13636V12.225C7.45365 12.059 8.66518 11.4183 9.54382 10.4229C10.4225 9.42756 10.9079 8.14588 10.9091 6.81818Z" fill="#768396"/>
</svg>
