<svg width="8" height="6" viewBox="0 0 8 6" fill="none" xmlns="http://www.w3.org/2000/svg">
<path d="M7.01267 0.151059C6.96519 0.103194 6.90871 0.0652017 6.84648 0.039275C6.78425 0.0133482 6.7175 0 6.65008 0C6.58266 0 6.51591 0.0133482 6.45368 0.039275C6.39145 0.0652017 6.33497 0.103194 6.2875 0.151059L2.4829 3.96076L0.884464 2.35721C0.835172 2.3096 0.776984 2.27216 0.713223 2.24703C0.649461 2.2219 0.581375 2.20958 0.512851 2.21076C0.444327 2.21195 0.376708 2.22662 0.313854 2.25394C0.251 2.28126 0.194142 2.32069 0.146526 2.36998C0.0989111 2.41927 0.0614709 2.47746 0.0363432 2.54122C0.0112156 2.60498 -0.00110744 2.67307 7.80929e-05 2.74159C0.00126363 2.81012 0.0159344 2.87774 0.0432527 2.94059C0.0705709 3.00344 0.110002 3.0603 0.159294 3.10792L2.12032 5.06894C2.16779 5.11681 2.22428 5.1548 2.28651 5.18073C2.34874 5.20665 2.41549 5.22 2.4829 5.22C2.55032 5.22 2.61707 5.20665 2.6793 5.18073C2.74153 5.1548 2.79801 5.11681 2.84549 5.06894L7.01267 0.901764C7.0645 0.853943 7.10587 0.795902 7.13417 0.731301C7.16246 0.6667 7.17707 0.596938 7.17707 0.526412C7.17707 0.455885 7.16246 0.386123 7.13417 0.321522C7.10587 0.256921 7.0645 0.198881 7.01267 0.151059Z" fill="#1ED01A"/>
</svg>
