<svg xmlns="http://www.w3.org/2000/svg" xmlns:xlink="http://www.w3.org/1999/xlink"><defs><symbol viewBox="0 0 8 8" fill="none" id="attachment">
<path d="M4.01927 5.39016L2.45682 6.95262C2.26764 7.13519 2.015 7.23722 1.7521 7.23722C1.4892 7.23722 1.23655 7.13519 1.04738 6.95262C0.954603 6.86021 0.880985 6.75038 0.830753 6.62945C0.780521 6.50852 0.754663 6.37885 0.754663 6.2479C0.754663 6.11695 0.780521 5.98729 0.830753 5.86636C0.880985 5.74542 0.954603 5.6356 1.04738 5.54319L2.60984 3.98073C2.68567 3.9049 2.72827 3.80205 2.72827 3.69481C2.72827 3.58758 2.68567 3.48473 2.60984 3.4089C2.53401 3.33307 2.43116 3.29047 2.32393 3.29047C2.21669 3.29047 2.11384 3.33307 2.03801 3.4089L0.475555 4.97538C0.160791 5.318 -0.0094429 5.76896 0.000404603 6.23411C0.0102521 6.69926 0.199419 7.14262 0.528402 7.4716C0.857384 7.80058 1.30074 7.98975 1.76589 7.9996C2.23104 8.00944 2.682 7.83921 3.02462 7.52445L4.5911 5.96199C4.66693 5.88616 4.70953 5.78331 4.70953 5.67607C4.70953 5.56884 4.66693 5.46599 4.5911 5.39016C4.51527 5.31433 4.41242 5.27173 4.30519 5.27173C4.19795 5.27173 4.0951 5.31433 4.01927 5.39016ZM7.4744 0.525603C7.13564 0.188952 6.67745 0 6.19987 0C5.72228 0 5.26409 0.188952 4.92534 0.525603L3.35885 2.08806C3.32131 2.12561 3.29152 2.17018 3.2712 2.21924C3.25088 2.2683 3.24042 2.32087 3.24042 2.37397C3.24042 2.42707 3.25088 2.47965 3.2712 2.52871C3.29152 2.57777 3.32131 2.62234 3.35885 2.65989C3.3964 2.69743 3.44097 2.72722 3.49003 2.74754C3.53909 2.76786 3.59167 2.77832 3.64477 2.77832C3.69787 2.77832 3.75044 2.76786 3.7995 2.74754C3.84856 2.72722 3.89313 2.69743 3.93068 2.65989L5.49314 1.09743C5.68231 0.914858 5.93495 0.812828 6.19785 0.812828C6.46076 0.812828 6.7134 0.914858 6.90257 1.09743C6.99535 1.18984 7.06897 1.29967 7.1192 1.4206C7.16943 1.54153 7.19529 1.6712 7.19529 1.80215C7.19529 1.9331 7.16943 2.06276 7.1192 2.18369C7.06897 2.30463 6.99535 2.41445 6.90257 2.50686L5.34011 4.06932C5.30237 4.10676 5.27241 4.1513 5.25197 4.20037C5.23152 4.24944 5.221 4.30207 5.221 4.35523C5.221 4.40839 5.23152 4.46103 5.25197 4.5101C5.27241 4.55917 5.30237 4.60371 5.34011 4.64115C5.37755 4.67889 5.42209 4.70885 5.47116 4.72929C5.52023 4.74974 5.57287 4.76026 5.62603 4.76026C5.67919 4.76026 5.73182 4.74974 5.78089 4.72929C5.82997 4.70885 5.8745 4.67889 5.91194 4.64115L7.4744 3.07466C7.81105 2.73591 8 2.27772 8 1.80013C8 1.32255 7.81105 0.864358 7.4744 0.525603ZM2.69843 5.30157C2.73606 5.33889 2.78069 5.36842 2.82975 5.38846C2.87881 5.4085 2.93135 5.41866 2.98435 5.41835C3.03734 5.41866 3.08988 5.4085 3.13894 5.38846C3.18801 5.36842 3.23263 5.33889 3.27026 5.30157L5.25152 3.32031C5.32735 3.24448 5.36995 3.14163 5.36995 3.03439C5.36995 2.92716 5.32735 2.82431 5.25152 2.74848C5.17569 2.67265 5.07284 2.63005 4.96561 2.63005C4.85837 2.63005 4.75552 2.67265 4.67969 2.74848L2.69843 4.72974C2.66069 4.76718 2.63073 4.81172 2.61029 4.86079C2.58984 4.90986 2.57932 4.96249 2.57932 5.01565C2.57932 5.06881 2.58984 5.12145 2.61029 5.17052C2.63073 5.21959 2.66069 5.26413 2.69843 5.30157Z" fill="#768396" />
</symbol><symbol viewBox="0 0 18 19" fill="none" id="bell-icon">
<path d="M18 15.0233C18 15.5113 17.6043 15.907 17.1163 15.907H0.88372C0.395655 15.907 0 15.5113 0 15.0233C0 14.5352 0.395656 14.1395 0.883721 14.1395H0.9V7.98088C0.9 3.57288 4.527 0 9 0C13.473 0 17.1 3.57288 17.1 7.98088V14.1395H17.1163C17.6043 14.1395 18 14.5352 18 15.0233ZM2.7 14.1395H15.3V7.98088C15.3 4.5494 12.4794 1.76744 9 1.76744C5.5206 1.76744 2.7 4.5494 2.7 7.98088V14.1395ZM6.97604 17.7558C6.73121 17.2608 7.19772 16.7907 7.75 16.7907H10.25C10.8023 16.7907 11.2688 17.2608 11.024 17.7558C10.9155 17.9751 10.7699 18.1773 10.591 18.3529C10.169 18.7672 9.59674 19 9 19C8.40326 19 7.83097 18.7672 7.40901 18.3529C7.23013 18.1773 7.08449 17.9751 6.97604 17.7558Z" fill="#768396" />
</symbol><symbol viewBox="0 0 17 17" fill="none" id="check-icon">
<path d="M10.812 5.7715L7.1655 9.4265L5.763 8.024C5.6868 7.93502 5.59303 7.86275 5.48758 7.81173C5.38212 7.76071 5.26726 7.73204 5.1502 7.72752C5.03314 7.723 4.9164 7.74272 4.80733 7.78546C4.69825 7.82819 4.59919 7.89301 4.51635 7.97584C4.43351 8.05868 4.36869 8.15775 4.32596 8.26682C4.28323 8.3759 4.2635 8.49263 4.26802 8.60969C4.27255 8.72675 4.30122 8.84162 4.35224 8.94707C4.40326 9.05253 4.47552 9.1463 4.5645 9.2225L6.562 11.2285C6.64143 11.3073 6.73562 11.3696 6.83918 11.4119C6.94274 11.4542 7.05364 11.4756 7.1655 11.475C7.38849 11.4741 7.60218 11.3855 7.7605 11.2285L12.0105 6.9785C12.0902 6.89948 12.1534 6.80547 12.1966 6.70189C12.2397 6.59831 12.2619 6.48721 12.2619 6.375C12.2619 6.26279 12.2397 6.15169 12.1966 6.04811C12.1534 5.94453 12.0902 5.85052 12.0105 5.7715C11.8512 5.61319 11.6358 5.52432 11.4113 5.52432C11.1867 5.52432 10.9713 5.61319 10.812 5.7715ZM8.5 0C6.81886 0 5.17547 0.498516 3.77766 1.43251C2.37984 2.3665 1.29037 3.69402 0.647028 5.24719C0.00368291 6.80036 -0.164645 8.50943 0.163329 10.1583C0.491303 11.8071 1.30085 13.3217 2.4896 14.5104C3.67834 15.6992 5.1929 16.5087 6.84173 16.8367C8.49057 17.1646 10.1996 16.9963 11.7528 16.353C13.306 15.7096 14.6335 14.6202 15.5675 13.2223C16.5015 11.8245 17 10.1811 17 8.5C17 7.38376 16.7801 6.27846 16.353 5.24719C15.9258 4.21592 15.2997 3.27889 14.5104 2.48959C13.7211 1.70029 12.7841 1.07419 11.7528 0.647024C10.7215 0.219859 9.61624 0 8.5 0ZM8.5 15.3C7.15509 15.3 5.84038 14.9012 4.72212 14.154C3.60387 13.4068 2.7323 12.3448 2.21762 11.1022C1.70295 9.85971 1.56828 8.49245 1.83066 7.17338C2.09304 5.85431 2.74068 4.64267 3.69168 3.69167C4.64267 2.74068 5.85432 2.09304 7.17339 1.83066C8.49246 1.56828 9.85971 1.70294 11.1022 2.21762C12.3448 2.73229 13.4068 3.60387 14.154 4.72212C14.9012 5.84037 15.3 7.15509 15.3 8.5C15.3 10.3035 14.5836 12.0331 13.3083 13.3083C12.0331 14.5836 10.3035 15.3 8.5 15.3Z" fill="#768396" />
</symbol><symbol viewBox="0 0 14 8" fill="none" id="chevron">
<path d="M7.41998 7.37079L13.07 1.71079C13.1637 1.61783 13.2381 1.50723 13.2889 1.38537C13.3396 1.26351 13.3658 1.1328 13.3658 1.00079C13.3658 0.868781 13.3396 0.738075 13.2889 0.616216C13.2381 0.494356 13.1637 0.383755 13.07 0.290792C12.8826 0.104542 12.6292 -3.21984e-08 12.365 -4.37463e-08C12.1008 -5.52942e-08 11.8473 0.104541 11.66 0.290792L6.65998 5.24079L1.70999 0.290792C1.52262 0.104541 1.26917 -5.2876e-07 1.00499 -5.40308e-07C0.7408 -5.51856e-07 0.487349 0.104541 0.299986 0.290792C0.205498 0.383407 0.130327 0.493852 0.0788307 0.615727C0.0273342 0.737602 0.000535927 0.868485 -1.33952e-05 1.00079C0.000535915 1.1331 0.0273342 1.26398 0.0788307 1.38586C0.130327 1.50773 0.205498 1.61818 0.299986 1.71079L5.94998 7.37079C6.04363 7.4723 6.15728 7.55331 6.28378 7.60871C6.41028 7.66412 6.54688 7.69272 6.68499 7.69272C6.82309 7.69272 6.95969 7.66412 7.08619 7.60871C7.21269 7.55331 7.32634 7.4723 7.41998 7.37079Z" fill="#5250F9" />
</symbol><symbol viewBox="0 0 10 11" fill="none" id="comment">
<path d="M8.33333 0H1.66667C1.22464 0 0.800716 0.173839 0.488155 0.483273C0.175595 0.792708 0 1.21239 0 1.65V7.69999C0 8.1376 0.175595 8.55728 0.488155 8.86672C0.800716 9.17615 1.22464 9.34999 1.66667 9.34999H3.10556L4.60556 10.8405C4.65747 10.8915 4.71903 10.9318 4.78672 10.9592C4.85441 10.9865 4.92689 11.0004 5 11C5.13241 11 5.26048 10.9532 5.36111 10.868L7.15 9.34999H8.33333C8.77536 9.34999 9.19928 9.17615 9.51185 8.86672C9.82441 8.55728 10 8.1376 10 7.69999V1.65C10 1.21239 9.82441 0.792708 9.51185 0.483273C9.19928 0.173839 8.77536 0 8.33333 0ZM8.88889 7.69999C8.88889 7.84586 8.83036 7.98576 8.72617 8.0889C8.62198 8.19205 8.48068 8.24999 8.33333 8.24999H6.94444C6.81203 8.24998 6.68397 8.29679 6.58333 8.38199L5.02778 9.70199L3.72778 8.40949C3.67587 8.35852 3.6143 8.31819 3.54661 8.29082C3.47893 8.26345 3.40645 8.24957 3.33333 8.24999H1.66667C1.51932 8.24999 1.37802 8.19205 1.27383 8.0889C1.16964 7.98576 1.11111 7.84586 1.11111 7.69999V1.65C1.11111 1.50413 1.16964 1.36424 1.27383 1.26109C1.37802 1.15795 1.51932 1.1 1.66667 1.1H8.33333C8.48068 1.1 8.62198 1.15795 8.72617 1.26109C8.83036 1.36424 8.88889 1.50413 8.88889 1.65V7.69999Z" fill="#768396" />
</symbol><symbol viewBox="0 0 18 4" fill="none" id="ellipsis">
<path d="M9 0C8.60444 0 8.21776 0.117298 7.88886 0.337061C7.55996 0.556824 7.30362 0.869181 7.15224 1.23463C7.00087 1.60009 6.96126 2.00222 7.03843 2.39018C7.1156 2.77814 7.30608 3.13451 7.58579 3.41421C7.86549 3.69392 8.22186 3.8844 8.60982 3.96157C8.99778 4.03874 9.39992 3.99913 9.76537 3.84776C10.1308 3.69638 10.4432 3.44004 10.6629 3.11114C10.8827 2.78224 11 2.39556 11 2C11 1.46957 10.7893 0.96086 10.4142 0.585787C10.0391 0.210714 9.53043 0 9 0ZM2 0C1.60444 0 1.21776 0.117298 0.88886 0.337061C0.559962 0.556824 0.303617 0.869181 0.152242 1.23463C0.000866562 1.60009 -0.0387401 2.00222 0.0384303 2.39018C0.115601 2.77814 0.306082 3.13451 0.585787 3.41421C0.865492 3.69392 1.22186 3.8844 1.60982 3.96157C1.99778 4.03874 2.39992 3.99913 2.76537 3.84776C3.13082 3.69638 3.44318 3.44004 3.66294 3.11114C3.8827 2.78224 4 2.39556 4 2C4 1.46957 3.78929 0.96086 3.41421 0.585787C3.03914 0.210714 2.53043 0 2 0ZM16 0C15.6044 0 15.2178 0.117298 14.8889 0.337061C14.56 0.556824 14.3036 0.869181 14.1522 1.23463C14.0009 1.60009 13.9613 2.00222 14.0384 2.39018C14.1156 2.77814 14.3061 3.13451 14.5858 3.41421C14.8655 3.69392 15.2219 3.8844 15.6098 3.96157C15.9978 4.03874 16.3999 3.99913 16.7654 3.84776C17.1308 3.69638 17.4432 3.44004 17.6629 3.11114C17.8827 2.78224 18 2.39556 18 2C18 1.46957 17.7893 0.96086 17.4142 0.585787C17.0391 0.210714 16.5304 0 16 0Z" fill="#768396" />
</symbol><symbol viewBox="0 0 11 15" fill="none" id="microphone">
<path d="M5.45454 9.54545C6.17786 9.54545 6.87155 9.25812 7.38302 8.74666C7.89448 8.23519 8.18182 7.5415 8.18182 6.81818V2.72727C8.18182 2.00396 7.89448 1.31026 7.38302 0.7988C6.87155 0.287337 6.17786 0 5.45454 0C4.73123 0 4.03753 0.287337 3.52607 0.7988C3.01461 1.31026 2.72727 2.00396 2.72727 2.72727V6.81818C2.72727 7.5415 3.01461 8.23519 3.52607 8.74666C4.03753 9.25812 4.73123 9.54545 5.45454 9.54545ZM4.09091 2.72727C4.09091 2.36561 4.23458 2.01877 4.49031 1.76304C4.74604 1.5073 5.09289 1.36364 5.45454 1.36364C5.8162 1.36364 6.16305 1.5073 6.41878 1.76304C6.67451 2.01877 6.81818 2.36561 6.81818 2.72727V6.81818C6.81818 7.17984 6.67451 7.52669 6.41878 7.78242C6.16305 8.03815 5.8162 8.18182 5.45454 8.18182C5.09289 8.18182 4.74604 8.03815 4.49031 7.78242C4.23458 7.52669 4.09091 7.17984 4.09091 6.81818V2.72727ZM10.9091 6.81818C10.9091 6.63735 10.8373 6.46393 10.7094 6.33606C10.5815 6.2082 10.4081 6.13636 10.2273 6.13636C10.0464 6.13636 9.87302 6.2082 9.74515 6.33606C9.61729 6.46393 9.54545 6.63735 9.54545 6.81818C9.54545 7.90316 9.11445 8.9437 8.34725 9.71089C7.58006 10.4781 6.53952 10.9091 5.45454 10.9091C4.36957 10.9091 3.32903 10.4781 2.56184 9.71089C1.79464 8.9437 1.36364 7.90316 1.36364 6.81818C1.36364 6.63735 1.2918 6.46393 1.16394 6.33606C1.03607 6.2082 0.862647 6.13636 0.681818 6.13636C0.500989 6.13636 0.327566 6.2082 0.1997 6.33606C0.0718343 6.46393 0 6.63735 0 6.81818C0.00120395 8.14588 0.486628 9.42756 1.36527 10.4229C2.24391 11.4183 3.45544 12.059 4.77273 12.225V13.6364H3.40909C3.22826 13.6364 3.05484 13.7082 2.92697 13.8361C2.79911 13.9639 2.72727 14.1374 2.72727 14.3182C2.72727 14.499 2.79911 14.6724 2.92697 14.8003C3.05484 14.9282 3.22826 15 3.40909 15H7.5C7.68083 15 7.85425 14.9282 7.98212 14.8003C8.10998 14.6724 8.18182 14.499 8.18182 14.3182C8.18182 14.1374 8.10998 13.9639 7.98212 13.8361C7.85425 13.7082 7.68083 13.6364 7.5 13.6364H6.13636V12.225C7.45365 12.059 8.66518 11.4183 9.54382 10.4229C10.4225 9.42756 10.9079 8.14588 10.9091 6.81818Z" fill="#768396" />
</symbol><symbol viewBox="0 0 64 61" fill="none" id="octom-logo">
<path d="M17 9.9855V25.5071C17 26.2288 17.3888 26.8945 18.0174 27.249L24.822 31.0876V27.8785H27.8305V23.6667H32.0424V17.6497H26.0254V11.4322H32.0424V7.01977H36.8559V4.0113H39.4633L33.9319 0.850524C33.0096 0.323496 31.8774 0.323498 30.9551 0.850526L18.0077 8.24902C17.3846 8.6051 17 9.26779 17 9.9855Z" fill="#5051F9" />
<path d="M46.722 8.44176L40.0649 4.41248V7.42095H36.8559V11.8334H32.4435V17.6498H38.4604V23.6667H32.4435V28.2797H28.0311V31.4887H25.4237L30.9283 34.6342C31.8649 35.1694 33.0169 35.1605 33.9452 34.6109L46.7054 27.0555C47.3135 26.6954 47.6864 26.0412 47.6864 25.3345V10.1528C47.6864 9.45298 47.3207 8.8041 46.722 8.44176Z" fill="#1DA7FF" />
<path d="M6.336 56.192C5.216 56.192 4.23467 55.9467 3.392 55.456C2.56 54.9653 1.904 54.288 1.424 53.424C0.954667 52.5493 0.72 51.5413 0.72 50.4C0.72 49.2587 0.954667 48.256 1.424 47.392C1.904 46.5173 2.56 45.8347 3.392 45.344C4.23467 44.8533 5.216 44.608 6.336 44.608C7.44533 44.608 8.42133 44.8533 9.264 45.344C10.1067 45.8347 10.7627 46.5173 11.232 47.392C11.7013 48.256 11.936 49.2587 11.936 50.4C11.936 51.5413 11.7013 52.5493 11.232 53.424C10.7627 54.288 10.1067 54.9653 9.264 55.456C8.42133 55.9467 7.44533 56.192 6.336 56.192ZM6.336 54.352C7.40267 54.352 8.25067 54 8.88 53.296C9.52 52.592 9.84 51.6267 9.84 50.4C9.84 49.1733 9.52 48.208 8.88 47.504C8.25067 46.8 7.40267 46.448 6.336 46.448C5.26933 46.448 4.416 46.8 3.776 47.504C3.136 48.208 2.816 49.1733 2.816 50.4C2.816 51.6267 3.136 52.592 3.776 53.296C4.416 54 5.26933 54.352 6.336 54.352ZM18.8163 56.192C17.6856 56.192 16.7149 55.952 15.9043 55.472C15.0936 54.9813 14.4696 54.304 14.0323 53.44C13.5949 52.5653 13.3763 51.5573 13.3763 50.416C13.3763 49.2747 13.5949 48.2667 14.0323 47.392C14.4696 46.5173 15.0936 45.8347 15.9043 45.344C16.7149 44.8533 17.6856 44.608 18.8163 44.608C20.1603 44.608 21.2589 44.944 22.1123 45.616C22.9763 46.2773 23.5149 47.2107 23.7283 48.416H21.4722C21.3336 47.808 21.0349 47.3333 20.5763 46.992C20.1283 46.64 19.5309 46.464 18.7843 46.464C17.7496 46.464 16.9389 46.816 16.3523 47.52C15.7656 48.224 15.4723 49.1893 15.4723 50.416C15.4723 51.6427 15.7656 52.608 16.3523 53.312C16.9389 54.0053 17.7496 54.352 18.7843 54.352C19.5309 54.352 20.1283 54.192 20.5763 53.872C21.0349 53.5413 21.3336 53.088 21.4722 52.512H23.7283C23.5149 53.664 22.9763 54.5653 22.1123 55.216C21.2589 55.8667 20.1603 56.192 18.8163 56.192ZM28.0085 56V46.448H24.7445V44.8H33.3365V46.448H30.0565V56H28.0085ZM39.6954 56.192C38.5754 56.192 37.594 55.9467 36.7514 55.456C35.9194 54.9653 35.2634 54.288 34.7834 53.424C34.314 52.5493 34.0794 51.5413 34.0794 50.4C34.0794 49.2587 34.314 48.256 34.7834 47.392C35.2634 46.5173 35.9194 45.8347 36.7514 45.344C37.594 44.8533 38.5754 44.608 39.6954 44.608C40.8047 44.608 41.7807 44.8533 42.6234 45.344C43.466 45.8347 44.122 46.5173 44.5914 47.392C45.0607 48.256 45.2954 49.2587 45.2954 50.4C45.2954 51.5413 45.0607 52.5493 44.5914 53.424C44.122 54.288 43.466 54.9653 42.6234 55.456C41.7807 55.9467 40.8047 56.192 39.6954 56.192ZM39.6954 54.352C40.762 54.352 41.61 54 42.2394 53.296C42.8794 52.592 43.1994 51.6267 43.1994 50.4C43.1994 49.1733 42.8794 48.208 42.2394 47.504C41.61 46.8 40.762 46.448 39.6954 46.448C38.6287 46.448 37.7754 46.8 37.1354 47.504C36.4954 48.208 36.1754 49.1733 36.1754 50.4C36.1754 51.6267 36.4954 52.592 37.1354 53.296C37.7754 54 38.6287 54.352 39.6954 54.352ZM47.1036 56V44.8H49.5356L53.1036 51.904L56.6236 44.8H59.0556V56H57.0076V48.272L53.8876 54.4H52.2716L49.1516 48.272V56H47.1036ZM62.0606 56.112C61.6873 56.112 61.378 55.9947 61.1326 55.76C60.898 55.5253 60.7806 55.2427 60.7806 54.912C60.7806 54.5707 60.898 54.2827 61.1326 54.048C61.378 53.8133 61.6873 53.696 62.0606 53.696C62.434 53.696 62.738 53.8133 62.9726 54.048C63.218 54.2827 63.3406 54.5707 63.3406 54.912C63.3406 55.2427 63.218 55.5253 62.9726 55.76C62.738 55.9947 62.434 56.112 62.0606 56.112Z" fill="#23235F" />
</symbol><symbol viewBox="0 0 21 20" fill="none" id="search-icon">
<path d="M19.7309 18.3109L16.0209 14.6309C17.461 12.8353 18.1584 10.5562 17.9697 8.2622C17.781 5.9682 16.7206 3.83368 15.0064 2.29754C13.2923 0.761407 11.0547 -0.0595894 8.75382 0.00337096C6.45294 0.0663314 4.26362 1.00846 2.63604 2.63604C1.00846 4.26362 0.0663314 6.45294 0.00337096 8.75382C-0.0595894 11.0547 0.761407 13.2923 2.29754 15.0064C3.83368 16.7206 5.9682 17.781 8.2622 17.9697C10.5562 18.1584 12.8353 17.461 14.6309 16.0209L18.3109 19.7009C18.4039 19.7946 18.5145 19.869 18.6363 19.9198C18.7582 19.9706 18.8889 19.9967 19.0209 19.9967C19.1529 19.9967 19.2836 19.9706 19.4055 19.9198C19.5273 19.869 19.6379 19.7946 19.7309 19.7009C19.9111 19.5144 20.0119 19.2652 20.0119 19.0059C20.0119 18.7466 19.9111 18.4974 19.7309 18.3109ZM9.0209 16.0209C7.63643 16.0209 6.28305 15.6104 5.13191 14.8412C3.98076 14.072 3.08356 12.9788 2.55374 11.6997C2.02393 10.4206 1.88531 9.01314 2.1554 7.65527C2.4255 6.2974 3.09219 5.05012 4.07115 4.07115C5.05012 3.09219 6.2974 2.4255 7.65527 2.1554C9.01314 1.88531 10.4206 2.02393 11.6997 2.55374C12.9788 3.08356 14.072 3.98076 14.8412 5.13191C15.6104 6.28305 16.0209 7.63643 16.0209 9.0209C16.0209 10.8774 15.2834 12.6579 13.9706 13.9706C12.6579 15.2834 10.8774 16.0209 9.0209 16.0209Z" fill="#94A2BC" />
</symbol><symbol viewBox="0 0 8 6" fill="none" id="seen-icon">
<path d="M7.01267 0.151059C6.96519 0.103194 6.90871 0.0652017 6.84648 0.039275C6.78425 0.0133482 6.7175 0 6.65008 0C6.58266 0 6.51591 0.0133482 6.45368 0.039275C6.39145 0.0652017 6.33497 0.103194 6.2875 0.151059L2.4829 3.96076L0.884464 2.35721C0.835172 2.3096 0.776984 2.27216 0.713223 2.24703C0.649461 2.2219 0.581375 2.20958 0.512851 2.21076C0.444327 2.21195 0.376708 2.22662 0.313854 2.25394C0.251 2.28126 0.194142 2.32069 0.146526 2.36998C0.0989111 2.41927 0.0614709 2.47746 0.0363432 2.54122C0.0112156 2.60498 -0.00110744 2.67307 7.80929e-05 2.74159C0.00126363 2.81012 0.0159344 2.87774 0.0432527 2.94059C0.0705709 3.00344 0.110002 3.0603 0.159294 3.10792L2.12032 5.06894C2.16779 5.11681 2.22428 5.1548 2.28651 5.18073C2.34874 5.20665 2.41549 5.22 2.4829 5.22C2.55032 5.22 2.61707 5.20665 2.6793 5.18073C2.74153 5.1548 2.79801 5.11681 2.84549 5.06894L7.01267 0.901764C7.0645 0.853943 7.10587 0.795902 7.13417 0.731301C7.16246 0.6667 7.17707 0.596938 7.17707 0.526412C7.17707 0.455885 7.16246 0.386123 7.13417 0.321522C7.10587 0.256921 7.0645 0.198881 7.01267 0.151059Z" fill="#1ED01A" />
</symbol><symbol viewBox="0 0 20 20" fill="none" id="side-icon1">
<path fill-rule="evenodd" clip-rule="evenodd" d="M15.5 13C15.0478 13 14.4089 13.0625 13.7438 13.1536C13.4331 13.1962 13.1962 13.4331 13.1536 13.7438C13.0625 14.4089 13 15.0478 13 15.5C13 15.9522 13.0625 16.5911 13.1536 17.2562C13.1962 17.5669 13.4331 17.8038 13.7438 17.8464C14.4089 17.9375 15.0478 18 15.5 18C15.9522 18 16.5911 17.9375 17.2562 17.8464C17.5669 17.8038 17.8038 17.5669 17.8464 17.2562C17.9375 16.5911 18 15.9522 18 15.5C18 15.0478 17.9375 14.4089 17.8464 13.7438C17.8038 13.4331 17.5669 13.1962 17.2562 13.1536C16.5911 13.0625 15.9522 13 15.5 13ZM13.4724 11.1721C12.2725 11.3364 11.3364 12.2725 11.1721 13.4724C11.0778 14.1606 11 14.9082 11 15.5C11 16.0918 11.0778 16.8394 11.1721 17.5276C11.3364 18.7275 12.2725 19.6636 13.4724 19.8279C14.1606 19.9222 14.9082 20 15.5 20C16.0918 20 16.8394 19.9222 17.5276 19.8279C18.7275 19.6636 19.6636 18.7275 19.8279 17.5276C19.9222 16.8394 20 16.0918 20 15.5C20 14.9082 19.9222 14.1606 19.8279 13.4724C19.6636 12.2725 18.7275 11.3364 17.5276 11.1721C16.8394 11.0778 16.0918 11 15.5 11C14.9082 11 14.1606 11.0778 13.4724 11.1721Z" fill="#5F6388" />
<path fill-rule="evenodd" clip-rule="evenodd" d="M4.5 13C4.04782 13 3.40893 13.0625 2.74381 13.1536C2.43308 13.1962 2.19615 13.4331 2.15359 13.7438C2.0625 14.4089 2 15.0478 2 15.5C2 15.9522 2.0625 16.5911 2.15359 17.2562C2.19615 17.5669 2.43308 17.8038 2.74381 17.8464C3.40893 17.9375 4.04782 18 4.5 18C4.95218 18 5.59107 17.9375 6.25619 17.8464C6.56692 17.8038 6.80385 17.5669 6.84641 17.2562C6.9375 16.5911 7 15.9522 7 15.5C7 15.0478 6.9375 14.4089 6.84641 13.7438C6.80385 13.4331 6.56692 13.1962 6.25619 13.1536C5.59107 13.0625 4.95218 13 4.5 13ZM2.47244 11.1721C1.27253 11.3364 0.336423 12.2725 0.172092 13.4724C0.0778385 14.1606 0 14.9082 0 15.5C0 16.0918 0.0778385 16.8394 0.172092 17.5276C0.336423 18.7275 1.27253 19.6636 2.47244 19.8279C3.16065 19.9222 3.90816 20 4.5 20C5.09184 20 5.83935 19.9222 6.52756 19.8279C7.72747 19.6636 8.66358 18.7275 8.82791 17.5276C8.92216 16.8394 9 16.0918 9 15.5C9 14.9082 8.92216 14.1606 8.82791 13.4724C8.66358 12.2725 7.72747 11.3364 6.52756 11.1721C5.83935 11.0778 5.09184 11 4.5 11C3.90816 11 3.16065 11.0778 2.47244 11.1721Z" fill="#5F6388" />
<path fill-rule="evenodd" clip-rule="evenodd" d="M15.5 2C15.0478 2 14.4089 2.0625 13.7438 2.15359C13.4331 2.19615 13.1962 2.43308 13.1536 2.74381C13.0625 3.40893 13 4.04782 13 4.5C13 4.95218 13.0625 5.59107 13.1536 6.25619C13.1962 6.56692 13.4331 6.80385 13.7438 6.84641C14.4089 6.9375 15.0478 7 15.5 7C15.9522 7 16.5911 6.9375 17.2562 6.84641C17.5669 6.80385 17.8038 6.56692 17.8464 6.25619C17.9375 5.59107 18 4.95218 18 4.5C18 4.04782 17.9375 3.40893 17.8464 2.74381C17.8038 2.43308 17.5669 2.19615 17.2562 2.15359C16.5911 2.0625 15.9522 2 15.5 2ZM13.4724 0.172092C12.2725 0.336423 11.3364 1.27253 11.1721 2.47244C11.0778 3.16065 11 3.90816 11 4.5C11 5.09184 11.0778 5.83935 11.1721 6.52756C11.3364 7.72747 12.2725 8.66358 13.4724 8.82791C14.1606 8.92216 14.9082 9 15.5 9C16.0918 9 16.8394 8.92216 17.5276 8.82791C18.7275 8.66358 19.6636 7.72747 19.8279 6.52756C19.9222 5.83935 20 5.09184 20 4.5C20 3.90816 19.9222 3.16065 19.8279 2.47244C19.6636 1.27253 18.7275 0.336423 17.5276 0.172092C16.8394 0.0778385 16.0918 0 15.5 0C14.9082 0 14.1606 0.0778385 13.4724 0.172092Z" fill="#5F6388" />
<path fill-rule="evenodd" clip-rule="evenodd" d="M4.5 2C4.04782 2 3.40893 2.0625 2.74381 2.15359C2.43308 2.19615 2.19615 2.43308 2.15359 2.74381C2.0625 3.40893 2 4.04782 2 4.5C2 4.95218 2.0625 5.59107 2.15359 6.25619C2.19615 6.56692 2.43308 6.80385 2.74381 6.84641C3.40893 6.9375 4.04782 7 4.5 7C4.95218 7 5.59107 6.9375 6.25619 6.84641C6.56692 6.80385 6.80385 6.56692 6.84641 6.25619C6.9375 5.59107 7 4.95218 7 4.5C7 4.04782 6.9375 3.40893 6.84641 2.74381C6.80385 2.43308 6.56692 2.19615 6.25619 2.15359C5.59107 2.0625 4.95218 2 4.5 2ZM2.47244 0.172092C1.27253 0.336423 0.336423 1.27253 0.172092 2.47244C0.0778385 3.16065 0 3.90816 0 4.5C0 5.09184 0.0778385 5.83935 0.172092 6.52756C0.336423 7.72747 1.27253 8.66358 2.47244 8.82791C3.16065 8.92216 3.90816 9 4.5 9C5.09184 9 5.83935 8.92216 6.52756 8.82791C7.72747 8.66358 8.66358 7.72747 8.82791 6.52756C8.92216 5.83935 9 5.09184 9 4.5C9 3.90816 8.92216 3.16065 8.82791 2.47244C8.66358 1.27253 7.72747 0.336423 6.52756 0.172092C5.83935 0.0778385 5.09184 0 4.5 0C3.90816 0 3.16065 0.0778385 2.47244 0.172092Z" fill="#5F6388" />
</symbol><symbol viewBox="0 0 20 20" fill="none" id="side-icon2">
<path d="M19 8H17V5C17 4.73478 16.8946 4.48043 16.7071 4.29289C16.5196 4.10536 16.2652 4 16 4H11V1C11 0.734784 10.8946 0.48043 10.7071 0.292893C10.5196 0.105357 10.2652 0 10 0C9.73478 0 9.48043 0.105357 9.29289 0.292893C9.10536 0.48043 9 0.734784 9 1V4H4C3.73478 4 3.48043 4.10536 3.29289 4.29289C3.10536 4.48043 3 4.73478 3 5V8H1C0.734784 8 0.48043 8.10536 0.292893 8.29289C0.105357 8.48043 0 8.73478 0 9V15C0 15.2652 0.105357 15.5196 0.292893 15.7071C0.48043 15.8946 0.734784 16 1 16H9V19C9 19.2652 9.10536 19.5196 9.29289 19.7071C9.48043 19.8946 9.73478 20 10 20C10.2652 20 10.5196 19.8946 10.7071 19.7071C10.8946 19.5196 11 19.2652 11 19V16H19C19.2652 16 19.5196 15.8946 19.7071 15.7071C19.8946 15.5196 20 15.2652 20 15V9C20 8.73478 19.8946 8.48043 19.7071 8.29289C19.5196 8.10536 19.2652 8 19 8ZM5 6H15V8H5V6ZM18 14H2V10H18V14Z" fill="#5F6388" />
</symbol><symbol viewBox="0 0 20 20" fill="none" id="side-icon3">
<path d="M19.1578 0.187887C18.442 0.0657961 17.7171 0.00295143 16.9907 4.30177e-06C14.5124 -0.00200751 12.0857 0.70167 10 2.02716C7.90892 0.719074 5.48264 0.032667 3.00928 0.0494471C2.28289 0.0523942 1.55801 0.115239 0.842151 0.23733C0.607668 0.277357 0.395324 0.398967 0.243359 0.580258C0.0913926 0.761549 0.00979153 0.990609 0.0132507 1.22619V13.0925C0.0111118 13.2378 0.0413396 13.3817 0.101783 13.5141C0.162227 13.6466 0.251401 13.7642 0.36296 13.8586C0.474519 13.953 0.605722 14.0219 0.747233 14.0604C0.888743 14.0989 1.03708 14.106 1.1817 14.0813C2.61282 13.836 4.07906 13.8767 5.49404 14.201C6.90903 14.5254 8.24415 15.1269 9.42077 15.97L9.54061 16.0393H9.65046C9.76122 16.0849 9.88002 16.1085 10 16.1085C10.12 16.1085 10.2388 16.0849 10.3495 16.0393H10.4594L10.5792 15.97C11.7476 15.108 13.0789 14.4871 14.4942 14.144C15.9094 13.8008 17.3799 13.7426 18.8183 13.9725C18.9629 13.9973 19.1113 13.9901 19.2528 13.9516C19.3943 13.9131 19.5255 13.8442 19.637 13.7498C19.7486 13.6554 19.8378 13.5378 19.8982 13.4054C19.9587 13.273 19.9889 13.129 19.9867 12.9837V1.11741C19.9764 0.892104 19.8885 0.677085 19.7377 0.508017C19.587 0.33895 19.3824 0.225994 19.1578 0.187887ZM9.00133 13.3298C7.15366 12.3673 5.09702 11.865 3.00928 11.8663C2.67971 11.8663 2.35015 11.8663 2.0106 11.8663V1.97772C2.34322 1.95874 2.67666 1.95874 3.00928 1.97772C5.13983 1.97539 7.2239 2.59446 9.00133 3.75766V13.3298ZM17.9894 11.9058C17.6498 11.9058 17.3203 11.9058 16.9907 11.9058C14.903 11.9046 12.8463 12.4069 10.9987 13.3693V3.75766C12.7761 2.59446 14.8602 1.97539 16.9907 1.97772C17.3233 1.95874 17.6568 1.95874 17.9894 1.97772V11.9058ZM19.1578 16.0096C18.442 15.8875 17.7171 15.8247 16.9907 15.8217C14.5124 15.8197 12.0857 16.5234 10 17.8489C7.91428 16.5234 5.48762 15.8197 3.00928 15.8217C2.28289 15.8247 1.55801 15.8875 0.842151 16.0096C0.712151 16.03 0.587511 16.0757 0.4754 16.144C0.363288 16.2123 0.265917 16.3018 0.188884 16.4075C0.111852 16.5132 0.0566785 16.6329 0.0265368 16.7598C-0.00360488 16.8867 -0.00812012 17.0182 0.0132507 17.1468C0.064002 17.4036 0.215473 17.63 0.434482 17.7764C0.653492 17.9228 0.922184 17.9773 1.1817 17.928C2.61282 17.6826 4.07906 17.7233 5.49404 18.0477C6.90903 18.3721 8.24415 18.9735 9.42077 19.8167C9.58991 19.9359 9.79237 20 10 20C10.2076 20 10.4101 19.9359 10.5792 19.8167C11.7558 18.9735 13.091 18.3721 14.506 18.0477C15.9209 17.7233 17.3872 17.6826 18.8183 17.928C19.0778 17.9773 19.3465 17.9228 19.5655 17.7764C19.7845 17.63 19.936 17.4036 19.9867 17.1468C20.0081 17.0182 20.0036 16.8867 19.9735 16.7598C19.9433 16.6329 19.8881 16.5132 19.8111 16.4075C19.7341 16.3018 19.6367 16.2123 19.5246 16.144C19.4125 16.0757 19.2878 16.03 19.1578 16.0096Z" fill="#5F6388" />
</symbol><symbol viewBox="0 0 20 20" fill="none" id="side-icon4">
<path d="M19.32 7.55L17.43 6.92L18.32 5.14C18.4102 4.95369 18.4404 4.74397 18.4064 4.53978C18.3723 4.33558 18.2758 4.14699 18.13 4L16 1.87C15.8522 1.72209 15.6618 1.62421 15.4555 1.59013C15.2493 1.55605 15.0375 1.58748 14.85 1.68L13.07 2.57L12.44 0.680003C12.3735 0.482996 12.2472 0.311629 12.0787 0.189751C11.9102 0.0678737 11.7079 0.00154767 11.5 3.33354e-06H8.5C8.29036 -0.000537828 8.08585 0.0648223 7.91537 0.186845C7.7449 0.308868 7.61709 0.481382 7.55 0.680003L6.92 2.57L5.14 1.68C4.95369 1.58978 4.74397 1.55961 4.53978 1.59364C4.33558 1.62767 4.14699 1.72423 4 1.87L1.87 4C1.72209 4.14777 1.62421 4.33818 1.59013 4.54446C1.55605 4.75074 1.58748 4.96251 1.68 5.15L2.57 6.93L0.680003 7.56C0.482996 7.62654 0.311629 7.75283 0.189751 7.92131C0.0678737 8.08979 0.00154767 8.29207 3.33354e-06 8.5V11.5C-0.000537828 11.7096 0.0648223 11.9142 0.186845 12.0846C0.308868 12.2551 0.481382 12.3829 0.680003 12.45L2.57 13.08L1.68 14.86C1.58978 15.0463 1.55961 15.256 1.59364 15.4602C1.62767 15.6644 1.72423 15.853 1.87 16L4 18.13C4.14777 18.2779 4.33818 18.3758 4.54446 18.4099C4.75074 18.444 4.96251 18.4125 5.15 18.32L6.93 17.43L7.56 19.32C7.62709 19.5186 7.7549 19.6911 7.92537 19.8132C8.09585 19.9352 8.30036 20.0005 8.51 20H11.51C11.7196 20.0005 11.9242 19.9352 12.0946 19.8132C12.2651 19.6911 12.3929 19.5186 12.46 19.32L13.09 17.43L14.87 18.32C15.0551 18.4079 15.2628 18.4369 15.4649 18.4029C15.667 18.3689 15.8538 18.2737 16 18.13L18.13 16C18.2779 15.8522 18.3758 15.6618 18.4099 15.4555C18.444 15.2493 18.4125 15.0375 18.32 14.85L17.43 13.07L19.32 12.44C19.517 12.3735 19.6884 12.2472 19.8103 12.0787C19.9321 11.9102 19.9985 11.7079 20 11.5V8.5C20.0005 8.29036 19.9352 8.08585 19.8132 7.91537C19.6911 7.7449 19.5186 7.61709 19.32 7.55ZM18 10.78L16.8 11.18C16.5241 11.2695 16.2709 11.418 16.0581 11.6151C15.8452 11.8122 15.6778 12.0533 15.5675 12.3216C15.4571 12.5899 15.4064 12.879 15.419 13.1688C15.4315 13.4586 15.5069 13.7422 15.64 14L16.21 15.14L15.11 16.24L14 15.64C13.7436 15.5122 13.4627 15.4411 13.1763 15.4313C12.89 15.4215 12.6049 15.4734 12.3403 15.5834C12.0758 15.6934 11.8379 15.8589 11.6429 16.0688C11.4479 16.2787 11.3003 16.5281 11.21 16.8L10.81 18H9.22L8.82 16.8C8.73049 16.5241 8.58203 16.2709 8.3849 16.0581C8.18778 15.8452 7.94671 15.6778 7.67842 15.5675C7.41014 15.4571 7.12105 15.4064 6.83123 15.419C6.5414 15.4315 6.25777 15.5069 6 15.64L4.86 16.21L3.76 15.11L4.36 14C4.4931 13.7422 4.56852 13.4586 4.58105 13.1688C4.59358 12.879 4.5429 12.5899 4.43254 12.3216C4.32218 12.0533 4.15478 11.8122 3.94195 11.6151C3.72912 11.418 3.47595 11.2695 3.2 11.18L2 10.78V9.22L3.2 8.82C3.47595 8.73049 3.72912 8.58203 3.94195 8.3849C4.15478 8.18778 4.32218 7.94671 4.43254 7.67842C4.5429 7.41014 4.59358 7.12105 4.58105 6.83123C4.56852 6.5414 4.4931 6.25777 4.36 6L3.79 4.89L4.89 3.79L6 4.36C6.25777 4.4931 6.5414 4.56852 6.83123 4.58105C7.12105 4.59358 7.41014 4.5429 7.67842 4.43254C7.94671 4.32218 8.18778 4.15478 8.3849 3.94195C8.58203 3.72912 8.73049 3.47595 8.82 3.2L9.22 2H10.78L11.18 3.2C11.2695 3.47595 11.418 3.72912 11.6151 3.94195C11.8122 4.15478 12.0533 4.32218 12.3216 4.43254C12.5899 4.5429 12.879 4.59358 13.1688 4.58105C13.4586 4.56852 13.7422 4.4931 14 4.36L15.14 3.79L16.24 4.89L15.64 6C15.5122 6.25645 15.4411 6.53735 15.4313 6.82369C15.4215 7.11003 15.4734 7.39513 15.5834 7.65969C15.6934 7.92424 15.8589 8.16207 16.0688 8.35708C16.2787 8.5521 16.5281 8.69973 16.8 8.79L18 9.19V10.78ZM10 6C9.20888 6 8.43552 6.2346 7.77772 6.67413C7.11993 7.11365 6.60724 7.73836 6.30448 8.46927C6.00173 9.20017 5.92252 10.0044 6.07686 10.7804C6.2312 11.5563 6.61217 12.269 7.17158 12.8284C7.73099 13.3878 8.44372 13.7688 9.21964 13.9231C9.99557 14.0775 10.7998 13.9983 11.5307 13.6955C12.2616 13.3928 12.8864 12.8801 13.3259 12.2223C13.7654 11.5645 14 10.7911 14 10C14 8.93914 13.5786 7.92172 12.8284 7.17158C12.0783 6.42143 11.0609 6 10 6ZM10 12C9.60444 12 9.21776 11.8827 8.88886 11.6629C8.55996 11.4432 8.30362 11.1308 8.15224 10.7654C8.00087 10.3999 7.96126 9.99778 8.03843 9.60982C8.1156 9.22186 8.30608 8.86549 8.58579 8.58579C8.86549 8.30608 9.22186 8.1156 9.60982 8.03843C9.99778 7.96126 10.3999 8.00087 10.7654 8.15224C11.1308 8.30362 11.4432 8.55996 11.6629 8.88886C11.8827 9.21776 12 9.60444 12 10C12 10.5304 11.7893 11.0391 11.4142 11.4142C11.0391 11.7893 10.5304 12 10 12Z" fill="#5F6388" />
</symbol><symbol viewBox="0 0 20 20" fill="none" id="side-icon5">
<path d="M18.183 7.00798L4.19105 1.22798C3.66163 1.00877 3.08052 0.945927 2.51651 1.0469C1.9525 1.14786 1.42922 1.40841 1.00861 1.7977C0.587999 2.18699 0.287673 2.68871 0.143187 3.24348C-0.00129992 3.79824 0.0161035 4.38281 0.193336 4.92798L1.73246 9.77798L0.153359 14.628C-0.028665 15.1753 -0.0491122 15.7636 0.0944673 16.3223C0.238047 16.881 0.539564 17.3864 0.962896 17.778C1.50722 18.283 2.21946 18.5681 2.96175 18.578C3.35626 18.5777 3.74683 18.4996 4.11109 18.348L18.1531 12.568C18.6999 12.3404 19.1672 11.9559 19.4959 11.4629C19.8246 10.9699 20 10.3906 20 9.79798C20 9.20537 19.8246 8.62603 19.4959 8.13305C19.1672 7.64007 18.6999 7.25555 18.1531 7.02798L18.183 7.00798ZM3.38151 16.478C3.20521 16.5507 3.01179 16.5715 2.82407 16.5379C2.63635 16.5042 2.46218 16.4175 2.32212 16.288C2.19018 16.1618 2.09528 16.0019 2.04771 15.8257C2.00014 15.6494 2.00172 15.4634 2.05227 15.288L3.51144 10.778L17.2336 10.778L3.38151 16.478ZM3.51144 8.77798L2.02229 4.30798C1.97174 4.13253 1.97016 3.94658 2.01773 3.7703C2.0653 3.59402 2.1602 3.43413 2.29213 3.30798C2.38619 3.20926 2.49943 3.13083 2.6249 3.07752C2.75037 3.02421 2.88541 2.99714 3.02172 2.99798C3.15569 2.99824 3.28824 3.02545 3.41149 3.07798L17.2336 8.77798H3.51144Z" fill="#5F6388" />
</symbol><symbol viewBox="0 0 20 20" fill="none" id="side-icon6">
<path d="M12 11H11V10C11 9.73481 10.8946 9.48045 10.7071 9.29292C10.5196 9.10538 10.2652 9.00002 10 9.00002C9.73478 9.00002 9.48043 9.10538 9.29289 9.29292C9.10536 9.48045 9 9.73481 9 10V11H8C7.73478 11 7.48043 11.1054 7.29289 11.2929C7.10536 11.4805 7 11.7348 7 12C7 12.2652 7.10536 12.5196 7.29289 12.7071C7.48043 12.8947 7.73478 13 8 13H9V14C9 14.2652 9.10536 14.5196 9.29289 14.7071C9.48043 14.8947 9.73478 15 10 15C10.2652 15 10.5196 14.8947 10.7071 14.7071C10.8946 14.5196 11 14.2652 11 14V13H12C12.2652 13 12.5196 12.8947 12.7071 12.7071C12.8946 12.5196 13 12.2652 13 12C13 11.7348 12.8946 11.4805 12.7071 11.2929C12.5196 11.1054 12.2652 11 12 11ZM17 4.00002H10.72L10.4 3.00002C10.1926 2.41325 9.80775 1.90553 9.2989 1.54718C8.79005 1.18884 8.18236 0.997623 7.56 1.00002H3C2.20435 1.00002 1.44129 1.31609 0.87868 1.8787C0.316071 2.44131 0 3.20437 0 4.00002V17C0 17.7957 0.316071 18.5587 0.87868 19.1213C1.44129 19.684 2.20435 20 3 20H17C17.7956 20 18.5587 19.684 19.1213 19.1213C19.6839 18.5587 20 17.7957 20 17V7.00002C20 6.20437 19.6839 5.44131 19.1213 4.8787C18.5587 4.31609 17.7956 4.00002 17 4.00002ZM18 17C18 17.2652 17.8946 17.5196 17.7071 17.7071C17.5196 17.8947 17.2652 18 17 18H3C2.73478 18 2.48043 17.8947 2.29289 17.7071C2.10536 17.5196 2 17.2652 2 17V4.00002C2 3.73481 2.10536 3.48045 2.29289 3.29292C2.48043 3.10538 2.73478 3.00002 3 3.00002H7.56C7.76964 2.99948 7.97416 3.06484 8.14463 3.18686C8.3151 3.30889 8.44291 3.4814 8.51 3.68002L9.05 5.32002C9.11709 5.51864 9.2449 5.69116 9.41537 5.81318C9.58584 5.9352 9.79036 6.00056 10 6.00002H17C17.2652 6.00002 17.5196 6.10538 17.7071 6.29292C17.8946 6.48045 18 6.73481 18 7.00002V17Z" fill="#5F6388" />
</symbol></defs></svg>